<svg width="322" height="59" viewBox="0 0 322 59" fill="none" xmlns="http://www.w3.org/2000/svg">
<g clip-path="url(#clip0_538_2176)">
<path d="M57.6227 48.9338C57.6227 53.7159 53.6806 57.5934 48.8192 57.5934C43.9576 57.5934 40.0156 53.7159 40.0156 48.9338C40.0156 44.1506 43.9576 40.274 48.8192 40.274C53.6806 40.274 57.6227 44.1506 57.6227 48.9338Z" fill="url(#paint0_linear_538_2176)"/>
<path d="M48.8196 1.40625C36.0099 1.42401 23.7304 6.43699 14.6718 15.3464C5.61435 24.2559 0.518201 36.3353 0.5 48.9358V50.2624L14.1978 50.2613V48.9347C14.1978 36.7674 20.7963 25.5257 31.5079 19.4414C42.2207 13.3583 55.4177 13.3583 66.1293 19.4414C76.8411 25.5245 83.4395 36.7672 83.4395 48.9358V50.2624L97.1373 50.2613V48.9347C97.1192 36.3344 92.0229 24.2559 82.9654 15.3464C73.9071 6.43699 61.6295 1.42415 48.8196 1.40625ZM84.7901 48.9344C84.7901 36.2933 77.9344 24.613 66.805 18.2919C55.6759 11.9724 41.9645 11.9724 30.8345 18.2919C19.7052 24.6124 12.8495 36.2925 12.8495 48.9344H1.84886C1.84886 32.4245 10.8024 17.1694 25.3376 8.91696C39.8729 0.664553 57.7807 0.662564 72.3151 8.91696C86.8495 17.1714 95.804 32.4259 95.804 48.9344H84.7901Z" fill="url(#paint1_linear_538_2176)"/>
<path d="M48.1592 31.9942C52.636 31.9942 56.9287 33.7425 60.094 36.8562C63.2596 39.9699 65.038 44.1936 65.038 48.597H76.0534C76.0534 38.7941 70.7358 29.7362 62.1062 24.8353C53.4755 19.9333 42.8426 19.9333 34.2118 24.8353C25.5822 29.7362 20.2646 38.7941 20.2646 48.597H31.28C31.28 44.1936 33.0586 39.9699 36.224 36.8562C39.3894 33.7425 43.6824 31.9942 48.1592 31.9942Z" fill="url(#paint2_linear_538_2176)"/>
<path d="M108.588 33.125V9.83075H123.343C129.284 9.83075 131.21 12.5386 131.21 16.16C131.21 19.1941 129.545 21.0864 127.358 21.7715V21.8368C130.133 22.424 130.753 24.8383 130.753 28.1334C130.753 29.2426 130.786 31.8526 131.733 33.125H126.444C126.085 32.4725 125.857 31.298 125.857 29.6015C125.857 26.2738 125.4 23.9248 121.809 23.9248H113.484V33.125H108.588ZM113.484 20.2708H121.939C124.649 20.2708 126.118 19.4551 126.118 16.8451C126.118 14.4309 124.518 13.4848 121.939 13.4848H113.484V20.2708ZM154.141 25.6213H137.818C137.916 27.5461 139.222 30.515 143.694 30.515C146.665 30.515 147.971 29.471 148.852 28.0355H153.749C152.769 29.9604 150.419 33.7775 143.825 33.7775C136.023 33.7775 133.118 29.2426 133.118 24.6425C133.118 18.8679 137.394 15.1813 143.531 15.1813C151.203 15.1813 154.141 19.9119 154.141 24.9688V25.6213ZM137.818 22.7503H149.44C148.885 19.292 145.816 18.248 143.596 18.248C141.507 18.248 138.569 19.2268 137.818 22.7503ZM156.252 33.125V15.8338H160.757V18.4437H160.822C162.291 16.5841 164.576 15.377 167.645 15.377C171.366 15.377 174.99 16.7146 174.99 21.38V33.125H170.485V22.8155C170.485 20.9559 169.864 18.8353 166.143 18.8353C163.793 18.8353 160.757 20.1403 160.757 23.8269V33.125H156.252ZM198.12 25.6213H181.797C181.895 27.5461 183.201 30.515 187.673 30.515C190.644 30.515 191.95 29.471 192.831 28.0355H197.728C196.748 29.9604 194.398 33.7775 187.804 33.7775C180.002 33.7775 177.097 29.2426 177.097 24.6425C177.097 18.8679 181.373 15.1813 187.51 15.1813C195.182 15.1813 198.12 19.9119 198.12 24.9688V25.6213ZM181.797 22.7503H193.419C192.864 19.292 189.795 18.248 187.575 18.248C185.486 18.248 182.548 19.2268 181.797 22.7503ZM213.68 33.125V22.8155C213.68 21.0211 213.451 18.8353 209.436 18.8353C207.869 18.8353 204.735 19.7161 204.735 23.5006V33.125H200.23V15.8338H204.735V18.4437H204.801C206.27 16.5841 208.555 15.377 211.623 15.377C213.647 15.377 216.52 15.7359 217.728 18.5743C218.838 16.9756 221.123 15.377 224.746 15.377C227.521 15.377 231.634 16.3557 231.634 21.641V33.125H227.129V22.8155C227.129 21.0211 226.901 18.8353 222.885 18.8353C221.319 18.8353 218.185 19.7161 218.185 23.5006V33.125H213.68ZM238.268 24.4794C238.268 27.4809 239.9 30.3193 244.275 30.3193C248.649 30.3193 250.281 27.4809 250.281 24.4794C250.281 21.4779 248.649 18.6395 244.275 18.6395C239.9 18.6395 238.268 21.4779 238.268 24.4794ZM233.567 24.4794C233.567 19.7161 236.538 15.1813 244.275 15.1813C252.011 15.1813 254.982 19.7161 254.982 24.4794C254.982 29.2426 252.011 33.7775 244.275 33.7775C236.538 33.7775 233.567 29.2426 233.567 24.4794ZM256.897 33.125V15.8338H261.402V18.4437H261.467C262.936 16.5841 265.221 15.377 268.29 15.377C272.011 15.377 275.635 16.7146 275.635 21.38V33.125H271.13V22.8155C271.13 20.9559 270.51 18.8353 266.788 18.8353C264.438 18.8353 261.402 20.1403 261.402 23.8269V33.125H256.897Z" fill="#111212"/>
<path d="M108.142 49.9932H110.832C111.493 49.9932 112.035 49.8487 112.456 49.5597C112.882 49.2706 113.099 48.81 113.107 48.1782C113.107 47.8394 113.047 47.5565 112.927 47.3294C112.807 47.0981 112.642 46.9246 112.431 46.809C112.01 46.5777 111.493 46.4663 110.882 46.4744H108.142V49.9932ZM110.857 50.7244H108.142V54.875H107.28V45.7434H110.857C112.915 45.7228 113.952 46.5219 113.969 48.141C113.985 49.2231 113.489 49.9664 112.481 50.3711C112.762 50.4661 112.983 50.5962 113.144 50.7615C113.297 50.9431 113.406 51.1476 113.473 51.3747C113.551 51.602 113.603 51.8436 113.628 52.0997C113.652 52.3514 113.661 52.5994 113.652 52.843C113.677 53.512 113.719 53.9871 113.776 54.2678C113.838 54.5364 113.923 54.7099 114.031 54.7882V54.875H113.082C112.995 54.7057 112.935 54.4868 112.902 54.2183C112.861 53.9541 112.828 53.6731 112.803 53.3759C112.795 53.0661 112.783 52.7749 112.766 52.5023C112.737 52.2338 112.706 52.0149 112.673 51.8456C112.623 51.5895 112.547 51.3892 112.444 51.2447C112.336 51.0919 112.198 50.9783 112.028 50.904C111.867 50.8297 111.69 50.778 111.495 50.749C111.392 50.7325 111.291 50.7244 111.192 50.7244C111.088 50.7244 110.977 50.7244 110.857 50.7244ZM122.155 54.875H115.95V45.7434H122.031V46.4744H116.812V49.7764H121.523V50.5138H116.812V54.1378H122.155V54.875ZM129.666 54.875H123.902V45.7434H124.763V54.1378H129.666V54.875ZM132.324 54.875H131.462V45.7434H132.324V54.875ZM134.932 54.875H134.045L137.634 45.7434H138.614L142.116 54.875H141.23L140.176 52.0067H136.01L134.932 54.875ZM138.093 46.4744L136.302 51.2694H139.885L138.093 46.4744ZM144.402 50.5138V54.1378H146.596C147.546 54.1543 148.253 54.0449 148.716 53.8094C149.166 53.5658 149.392 53.0619 149.392 52.2978C149.383 51.5626 149.137 51.0733 148.654 50.8297C148.17 50.6066 147.52 50.5012 146.701 50.5138H144.402ZM144.402 46.4744V49.7764H146.584C147.472 49.7764 148.098 49.6195 148.462 49.3055C148.809 49.0083 148.978 48.5849 148.97 48.0357C148.978 47.4698 148.788 47.0651 148.4 46.8213C148.003 46.5901 147.336 46.4744 146.398 46.4744H144.402ZM147.272 54.875H143.54V45.7434H146.838C147.904 45.7518 148.675 45.9582 149.15 46.3629C149.617 46.776 149.846 47.3335 149.838 48.0357C149.83 48.6634 149.681 49.1343 149.392 49.4482C149.094 49.7579 148.755 49.9437 148.375 50.0057V50.0304C149.627 50.2741 150.253 51.03 150.253 52.2978C150.245 53.2396 149.97 53.9044 149.429 54.2926C148.879 54.6809 148.16 54.875 147.272 54.875ZM157.963 54.875H152.198V45.7434H153.059V54.1378H157.963V54.875ZM165.66 54.875H159.455V45.7434H165.536V46.4744H160.316V49.7764H165.027V50.5138H160.316V54.1378H165.66V54.875ZM177.248 54.875L171.991 46.9081H171.966V54.875H171.105V45.7434H172.078L177.359 53.7228H177.384V45.7434H178.252V54.875H177.248ZM186.698 54.875H180.494V45.7434H186.575V46.4744H181.356V49.7764H186.067V50.5138H181.356V54.1378H186.698V54.875ZM187.622 46.4744V45.7434H194.272V46.4744H191.377V54.875H190.516V46.4744H187.622ZM200.792 45.7434L202.874 53.6546H202.899L204.896 45.7434H205.781L203.383 54.875H202.427L200.307 46.809H200.284L198.164 54.875H197.215L194.852 45.7434H195.715L197.679 53.6546H197.705L199.825 45.7434H200.792ZM206.833 50.3216C206.833 48.9505 207.197 47.8126 207.924 46.9081C208.644 45.9872 209.683 45.5183 211.042 45.5018C212.485 45.5183 213.564 45.9831 214.284 46.8958C214.995 47.8003 215.351 48.9421 215.351 50.3216C215.351 51.6556 214.995 52.781 214.284 53.698C213.564 54.6272 212.498 55.1001 211.085 55.1166C209.68 55.1001 208.623 54.6272 207.912 53.698C207.193 52.781 206.833 51.6556 206.833 50.3216ZM211.098 54.3795C212.28 54.3628 213.142 53.9519 213.682 53.1466C214.216 52.3618 214.482 51.4202 214.482 50.3216C214.44 47.6495 213.305 46.2866 211.073 46.2328C209.912 46.2535 209.061 46.6645 208.519 47.4657C207.97 48.2628 207.696 49.2147 207.696 50.3216C207.696 50.8543 207.763 51.3665 207.899 51.8579C208.024 52.3453 208.225 52.7748 208.506 53.1466C209.049 53.9519 209.912 54.3628 211.098 54.3795ZM218.107 49.9932H220.797C221.459 49.9932 221.999 49.8487 222.422 49.5597C222.846 49.2706 223.064 48.81 223.073 48.1782C223.073 47.8394 223.013 47.5565 222.892 47.3294C222.772 47.0981 222.607 46.9246 222.396 46.809C221.976 46.5777 221.459 46.4663 220.848 46.4744H218.107V49.9932ZM220.822 50.7244H218.107V54.875H217.246V45.7434H220.822C222.881 45.7228 223.918 46.5219 223.934 48.141C223.951 49.2231 223.454 49.9664 222.445 50.3711C222.727 50.4661 222.948 50.5962 223.109 50.7615C223.262 50.9431 223.372 51.1476 223.437 51.3747C223.517 51.602 223.568 51.8436 223.593 52.0997C223.617 52.3514 223.626 52.5994 223.617 52.843C223.642 53.512 223.684 53.9871 223.742 54.2678C223.804 54.5364 223.889 54.7099 223.996 54.7882V54.875H223.048C222.961 54.7057 222.901 54.4868 222.868 54.2183C222.826 53.9541 222.794 53.6731 222.768 53.3759C222.761 53.0661 222.748 52.7749 222.732 52.5023C222.703 52.2338 222.672 52.0149 222.638 51.8456C222.589 51.5895 222.513 51.3892 222.409 51.2447C222.302 51.0919 222.163 50.9783 221.994 50.904C221.832 50.8297 221.655 50.778 221.461 50.749C221.357 50.7325 221.256 50.7244 221.156 50.7244C221.053 50.7244 220.942 50.7244 220.822 50.7244ZM226.827 54.875H225.966V45.7434H226.827V50.4703L231.513 45.7434H232.493L228.885 49.38L233.126 54.875H232.072L228.265 49.9127L226.827 51.35V54.875ZM239.121 54.875H238.26V45.7434H239.58L242.574 53.7971H242.6L245.543 45.7434H246.851V54.875H245.989V46.7285H245.966L242.964 54.875H242.153L239.147 46.7285H239.121V54.875ZM248.709 50.3216C248.709 48.9505 249.072 47.8126 249.799 46.9081C250.519 45.9872 251.559 45.5183 252.919 45.5018C254.36 45.5183 255.441 45.9831 256.16 46.8958C256.87 47.8003 257.226 48.9421 257.226 50.3216C257.226 51.6556 256.87 52.781 256.16 53.698C255.441 54.6272 254.375 55.1001 252.962 55.1166C251.557 55.1001 250.499 54.6272 249.788 53.698C249.069 52.781 248.709 51.6556 248.709 50.3216ZM252.973 54.3795C254.156 54.3628 255.017 53.9519 255.559 53.1466C256.092 52.3618 256.359 51.4202 256.359 50.3216C256.317 47.6495 255.18 46.2866 252.95 46.2328C251.787 46.2535 250.936 46.6645 250.396 47.4657C249.847 48.2628 249.571 49.2147 249.571 50.3216C249.571 50.8543 249.64 51.3665 249.776 51.8579C249.899 52.3453 250.102 52.7748 250.383 53.1466C250.924 53.9519 251.787 54.3628 252.973 54.3795ZM265.251 54.875L259.995 46.9081H259.97V54.875H259.108V45.7434H260.082L265.363 53.7228H265.389V45.7434H266.256V54.875H265.251ZM269.663 54.875H268.802V45.7434H269.663V54.875ZM271.397 46.4744V45.7434H278.049V46.4744H275.153V54.875H274.291V46.4744H271.397ZM279.125 50.3216C279.125 48.9505 279.489 47.8126 280.216 46.9081C280.935 45.9872 281.976 45.5183 283.334 45.5018C284.776 45.5183 285.857 45.9831 286.577 46.8958C287.287 47.8003 287.643 48.9421 287.643 50.3216C287.643 51.6556 287.287 52.781 286.577 53.698C285.857 54.6272 284.79 55.1001 283.377 55.1166C281.972 55.1001 280.915 54.6272 280.204 53.698C279.486 52.781 279.125 51.6556 279.125 50.3216ZM283.39 54.3795C284.573 54.3628 285.434 53.9519 285.974 53.1466C286.508 52.3618 286.774 51.4202 286.774 50.3216C286.733 47.6495 285.597 46.2866 283.365 46.2328C282.204 46.2535 281.353 46.6645 280.811 47.4657C280.262 48.2628 279.988 49.2147 279.988 50.3216C279.988 50.8543 280.055 51.3665 280.191 51.8579C280.316 52.3453 280.517 52.7748 280.799 53.1466C281.341 53.9519 282.204 54.3628 283.39 54.3795ZM290.4 49.9932H293.089C293.751 49.9932 294.291 49.8487 294.714 49.5597C295.138 49.2706 295.356 48.81 295.365 48.1782C295.365 47.8394 295.305 47.5565 295.184 47.3294C295.064 47.0981 294.899 46.9246 294.689 46.809C294.268 46.5777 293.751 46.4663 293.14 46.4744H290.4V49.9932ZM293.114 50.7244H290.4V54.875H289.538V45.7434H293.114C295.173 45.7228 296.21 46.5219 296.226 48.141C296.243 49.2231 295.746 49.9664 294.738 50.3711C295.019 50.4661 295.24 50.5962 295.401 50.7615C295.554 50.9431 295.664 51.1476 295.73 51.3747C295.809 51.602 295.86 51.8436 295.886 52.0997C295.909 52.3514 295.918 52.5994 295.909 52.843C295.935 53.512 295.976 53.9871 296.034 54.2678C296.096 54.5364 296.181 54.7099 296.288 54.7882V54.875H295.34C295.253 54.7057 295.193 54.4868 295.16 54.2183C295.118 53.9541 295.086 53.6731 295.06 53.3759C295.053 53.0661 295.04 52.7749 295.024 52.5023C294.995 52.2338 294.964 52.0149 294.93 51.8456C294.881 51.5895 294.805 51.3892 294.701 51.2447C294.594 51.0919 294.455 50.9783 294.286 50.904C294.125 50.8297 293.947 50.778 293.753 50.749C293.649 50.7325 293.548 50.7244 293.448 50.7244C293.345 50.7244 293.234 50.7244 293.114 50.7244ZM299.373 54.875H298.512V45.7434H299.373V54.875ZM308.049 54.875L302.793 46.9081H302.768V54.875H301.907V45.7434H302.88L308.162 53.7228H308.185V45.7434H309.054V54.875H308.049ZM318.263 50.8915H315.182V50.1543H319.088V54.875H318.35V53.3139C318.049 53.8631 317.63 54.2988 317.099 54.6211C316.547 54.9431 315.829 55.1083 314.941 55.1166C313.764 55.1166 312.81 54.7099 312.082 53.8962C311.332 53.0866 310.951 51.8746 310.942 50.2596C310.942 48.8801 311.288 47.7506 311.977 46.871C312.672 45.9747 313.735 45.5183 315.164 45.5018C316.147 45.5018 316.983 45.7373 317.668 46.2082C318.346 46.6914 318.785 47.4202 318.988 48.3949H318.102C317.94 47.7011 317.597 47.1682 317.073 46.7967C316.547 46.4208 315.934 46.2328 315.233 46.2328C314.037 46.2411 313.165 46.6439 312.616 47.4408C312.066 48.2338 311.796 49.2871 311.805 50.6004C311.805 51.633 312.095 52.5126 312.679 53.2396C313.252 53.9829 314.065 54.3628 315.115 54.3795C315.632 54.3795 316.143 54.2575 316.651 54.0139C317.151 53.7661 317.559 53.3552 317.873 52.781C318.142 52.207 318.272 51.5772 318.263 50.8915Z" fill="#111212"/>
</g>
<defs>
<linearGradient id="paint0_linear_538_2176" x1="48.8192" y1="40.274" x2="48.8192" y2="57.5934" gradientUnits="userSpaceOnUse">
<stop stop-color="#EBE914"/>
<stop offset="1" stop-color="#E1C11B"/>
</linearGradient>
<linearGradient id="paint1_linear_538_2176" x1="48.8187" y1="1.40625" x2="48.8187" y2="50.2624" gradientUnits="userSpaceOnUse">
<stop stop-color="#EBE914"/>
<stop offset="1" stop-color="#E1C11B"/>
</linearGradient>
<linearGradient id="paint2_linear_538_2176" x1="48.159" y1="21.1587" x2="48.159" y2="48.597" gradientUnits="userSpaceOnUse">
<stop stop-color="#EBE914"/>
<stop offset="1" stop-color="#E1C11B"/>
</linearGradient>
<clipPath id="clip0_538_2176">
<rect width="321" height="58" fill="white" transform="translate(0.5 0.5)"/>
</clipPath>
</defs>
</svg>
